# xmcd
#
# Track frame offsets: 
#        150
#        17337
#        30507
#        45623
#        57624
#        77311
#        89272
#        119294
#        138015
#        152600
#        165561
#        190504
#        209398
#        222826
#
# Disc length: 3128 seconds
#
# Revision: 3
# Processed by: cddbd v1.5.2PL0 Copyright (c) Steve Scherf et al.
# Submitted via: ExactAudioCopy v0.99pb4
#
DISCID=a50c360e
DTITLE=Czerwony Tulipan - A jednak po nas cos zostanie...
DYEAR=2000
DGENRE=Ballad
TTITLE0=Song o ciszy
TTITLE1=Wywiad
TTITLE2=Pantera wolne zwierze
TTITLE3=Madrosc... a ja jej nie rozumiem
TTITLE4=A jednak po nas cos zostanie
TTITLE5=Zeby sie soba zauroczyc
TTITLE6=Pod biczem wichru
TTITLE7=Odezwa do Malgosi
TTITLE8=Ja tone
TTITLE9=Grajek... ile pan dostaje
TTITLE10=Erotyk prosty
TTITLE11=Stukot kol
TTITLE12=A ja chce tu byc
TTITLE13=Song o solniczce
EXTD=YEAR: 2000 ID3G: 98
EXTT0=
EXTT1=
EXTT2=
EXTT3=
EXTT4=
EXTT5=
EXTT6=
EXTT7=
EXTT8=
EXTT9=
EXTT10=
EXTT11=
EXTT12=
EXTT13=
PLAYORDER=
